<?xml version="1.0" encoding="UTF-8" standalone="no"?>
<svg width="233px" height="233px" viewBox="0 0 233 233" version="1.1" xmlns="http://www.w3.org/2000/svg" xmlns:xlink="http://www.w3.org/1999/xlink">
    <!-- Generator: Sketch 40.3 (33839) - http://www.bohemiancoding.com/sketch -->
    <title>Page 1 Copy</title>
    <desc>Created with Sketch.</desc>
    <defs></defs>
    <g id="Page-1" stroke="none" stroke-width="1" fill="none" fill-rule="evenodd" opacity="0.0500000007">
        <g id="HOME-Copy" transform="translate(-67.000000, -89.000000)" stroke="#979797" fill="#FF5A48">
            <g id="Page-1-Copy" transform="translate(67.708947, 89.391960)">
                <path d="M156.224744,190.582603 C160.473413,193.995508 165.367759,196.733129 170.84921,198.51186 C195.329798,206.456949 221.577827,192.828044 229.439704,168.065551 C236.68519,145.221527 225.737954,120.921614 204.780669,111.050484 C214.069439,105.383189 221.477025,96.4585593 225.048686,85.1941823 C232.910563,60.4358195 219.424887,33.9152467 194.932039,25.9701575 C175.80758,19.7666275 155.669651,26.7363059 144.001136,41.8692846 C141.778724,24.2981231 129.858885,8.73078706 112.063923,2.9533539 C87.5669885,-4.99242366 61.3353057,8.62822093 53.4741102,33.394844 C49.0708327,47.2123605 51.3409215,61.5867629 58.469259,72.966785 C34.6772576,66.6028663 9.8520354,80.0803313 2.24216388,104.031244 C-5.61971269,128.797867 7.84893578,155.309491 32.3628976,163.262841 C41.1810312,166.11886 50.2177962,166.151901 58.5659744,163.90233 C57.6090363,165.881375 56.7494948,167.922372 56.0438806,170.077637 C48.1826851,194.836 61.6676799,221.347624 86.1605278,229.301662 C110.657462,237.24744 136.905491,223.617846 144.767368,198.859484 C145.767896,195.692324 148.20281,183.021621 148.527011,179.846201" id="Fill-1"></path>
                <path d="M118.196568,226.961984 C136.76253,221.161147 148.535933,204.073216 148.968428,185.150109 C160.829012,198.178761 179.138201,204.077346 196.41485,198.68402 C220.195273,191.253826 232.916079,165.30253 224.816501,140.704556 C220.311059,126.971708 210.253333,116.570539 198.112138,111.35894 C220.428888,103.041446 232.128734,78.0036081 224.301593,54.2117074" id="Fill-4"></path>
            </g>
        </g>
    </g>
</svg>