<?xml version="1.0" encoding="utf-8"?>
<!-- Generator: Adobe Illustrator 16.0.0, SVG Export Plug-In . SVG Version: 6.00 Build 0)  -->
<!DOCTYPE svg PUBLIC "-//W3C//DTD SVG 1.1//EN" "http://www.w3.org/Graphics/SVG/1.1/DTD/svg11.dtd">
<svg version="1.1" id="Calque_1" xmlns="http://www.w3.org/2000/svg" xmlns:xlink="http://www.w3.org/1999/xlink" x="0px" y="0px"
	 width="122px" height="26px" viewBox="0 0 122 26" enable-background="new 0 0 122 26" xml:space="preserve">
<title>Forever.</title>
<desc>Created with Sketch.</desc>
<g id="Page-1">
	<g id="Desktop-HD-Copy-2" transform="translate(-50.000000, -36.000000)">
		<g enable-background="new    ">
			<path fill="#030303" d="M51.728,36.183h15.682v4.585H56.559v6.126h9.66v4.445h-9.626V61h-4.865V36.183z"/>
			<path fill="#030303" d="M80.411,43.936c1.108,0.455,2.065,1.085,2.87,1.891c0.806,0.805,1.436,1.768,1.891,2.888
				s0.683,2.345,0.683,3.675s-0.228,2.55-0.683,3.658s-1.085,2.071-1.891,2.888c-0.805,0.817-1.762,1.453-2.87,1.908
				s-2.305,0.683-3.588,0.683s-2.479-0.228-3.588-0.683s-2.065-1.091-2.87-1.908c-0.805-0.816-1.436-1.779-1.891-2.888
				s-0.683-2.328-0.683-3.658s0.228-2.555,0.683-3.675s1.086-2.083,1.891-2.888c0.805-0.806,1.762-1.436,2.87-1.891
				s2.305-0.683,3.588-0.683S79.303,43.48,80.411,43.936z M78.469,56.975c0.536-0.21,1.003-0.52,1.4-0.928
				c0.396-0.408,0.717-0.916,0.962-1.522s0.368-1.318,0.368-2.136c0-0.816-0.123-1.528-0.368-2.135s-0.565-1.114-0.962-1.522
				c-0.397-0.408-0.864-0.718-1.4-0.928c-0.537-0.21-1.085-0.315-1.646-0.315c-0.56,0-1.108,0.105-1.646,0.315
				c-0.536,0.21-1.003,0.52-1.399,0.928c-0.397,0.408-0.718,0.916-0.963,1.522s-0.367,1.318-0.367,2.135
				c0,0.817,0.122,1.529,0.367,2.136s0.565,1.114,0.963,1.522c0.396,0.408,0.863,0.718,1.399,0.928
				c0.537,0.21,1.086,0.315,1.646,0.315C77.384,57.29,77.932,57.185,78.469,56.975z"/>
			<path fill="#030303" d="M97.789,48.259c-0.607,0-1.179,0.082-1.716,0.245c-0.536,0.163-1.003,0.432-1.4,0.805
				c-0.396,0.374-0.717,0.869-0.962,1.488c-0.245,0.618-0.368,1.394-0.368,2.327V61h-4.655V43.778h4.516v2.555
				c0.257-0.56,0.589-1.021,0.998-1.382c0.408-0.362,0.84-0.637,1.295-0.823s0.91-0.314,1.365-0.385s0.869-0.104,1.242-0.104
				c0.187,0,0.367,0.005,0.543,0.017c0.175,0.012,0.355,0.029,0.542,0.053v4.69C98.722,48.306,98.255,48.259,97.789,48.259z"/>
			<path fill="#030303" d="M115.901,58.183c-0.455,0.665-1.01,1.242-1.663,1.732s-1.418,0.881-2.293,1.173
				c-0.875,0.291-1.837,0.438-2.888,0.438c-1.189,0-2.321-0.204-3.396-0.613c-1.073-0.408-2.019-1.009-2.835-1.803
				c-0.816-0.793-1.464-1.762-1.942-2.905c-0.479-1.143-0.718-2.438-0.718-3.885c0-1.377,0.233-2.626,0.7-3.746
				s1.091-2.07,1.872-2.853c0.782-0.781,1.687-1.389,2.713-1.82c1.027-0.432,2.089-0.647,3.186-0.647
				c2.684,0,4.772,0.794,6.266,2.381s2.24,3.769,2.24,6.545c0,0.327-0.012,0.637-0.035,0.928c-0.023,0.292-0.035,0.461-0.035,0.508
				h-12.321c0.023,0.56,0.158,1.079,0.403,1.558s0.56,0.893,0.944,1.242c0.386,0.351,0.835,0.625,1.348,0.823
				c0.514,0.198,1.062,0.297,1.646,0.297c1.097,0,1.954-0.244,2.573-0.734c0.618-0.49,1.067-1.12,1.348-1.891l3.885,1.155
				C116.688,56.812,116.356,57.518,115.901,58.183z M112.296,49.187c-0.152-0.408-0.385-0.771-0.7-1.085
				c-0.315-0.315-0.712-0.572-1.19-0.771s-1.044-0.298-1.697-0.298c-0.606,0-1.144,0.105-1.61,0.315s-0.863,0.479-1.19,0.805
				c-0.326,0.327-0.577,0.688-0.752,1.085c-0.176,0.397-0.274,0.794-0.298,1.19h7.701C112.535,50.009,112.447,49.595,112.296,49.187
				z"/>
			<path fill="#030303" d="M124.527,61l-7.035-17.222h5.11l4.271,11.551l4.096-11.551h4.9L129.184,61H124.527z"/>
			<path fill="#030303" d="M151.776,58.183c-0.455,0.665-1.01,1.242-1.663,1.732s-1.418,0.881-2.293,1.173
				c-0.875,0.291-1.837,0.438-2.888,0.438c-1.189,0-2.321-0.204-3.396-0.613c-1.073-0.408-2.019-1.009-2.835-1.803
				c-0.816-0.793-1.464-1.762-1.942-2.905c-0.479-1.143-0.718-2.438-0.718-3.885c0-1.377,0.233-2.626,0.7-3.746
				s1.091-2.07,1.872-2.853c0.782-0.781,1.687-1.389,2.713-1.82c1.027-0.432,2.089-0.647,3.186-0.647
				c2.684,0,4.772,0.794,6.266,2.381s2.24,3.769,2.24,6.545c0,0.327-0.012,0.637-0.035,0.928c-0.023,0.292-0.035,0.461-0.035,0.508
				h-12.321c0.023,0.56,0.158,1.079,0.403,1.558s0.56,0.893,0.944,1.242c0.386,0.351,0.835,0.625,1.348,0.823
				c0.514,0.198,1.062,0.297,1.646,0.297c1.097,0,1.954-0.244,2.573-0.734c0.618-0.49,1.067-1.12,1.348-1.891l3.885,1.155
				C152.563,56.812,152.231,57.518,151.776,58.183z M148.171,49.187c-0.152-0.408-0.385-0.771-0.7-1.085
				c-0.315-0.315-0.712-0.572-1.19-0.771s-1.044-0.298-1.697-0.298c-0.606,0-1.144,0.105-1.61,0.315s-0.863,0.479-1.19,0.805
				c-0.326,0.327-0.577,0.688-0.752,1.085c-0.176,0.397-0.274,0.794-0.298,1.19h7.701C148.41,50.009,148.322,49.595,148.171,49.187z
				"/>
			<path fill="#030303" d="M164.953,48.259c-0.606,0-1.179,0.082-1.715,0.245c-0.537,0.163-1.004,0.432-1.4,0.805
				c-0.396,0.374-0.718,0.869-0.963,1.488c-0.245,0.618-0.367,1.394-0.367,2.327V61h-4.655V43.778h4.516v2.555
				c0.256-0.56,0.589-1.021,0.997-1.382c0.408-0.362,0.84-0.637,1.295-0.823s0.91-0.314,1.365-0.385s0.869-0.104,1.243-0.104
				c0.187,0,0.367,0.005,0.542,0.017s0.356,0.029,0.543,0.053v4.69C165.887,48.306,165.42,48.259,164.953,48.259z"/>
		</g>
		<g enable-background="new    ">
			<path fill="#FF5A48" d="M166.621,55.802c0.619-0.618,1.371-0.928,2.258-0.928c0.443,0,0.863,0.082,1.26,0.245
				c0.397,0.164,0.742,0.391,1.033,0.683s0.52,0.63,0.683,1.016c0.163,0.385,0.245,0.799,0.245,1.242s-0.082,0.857-0.245,1.243
				c-0.163,0.385-0.392,0.723-0.683,1.015s-0.636,0.52-1.033,0.683c-0.396,0.163-0.816,0.245-1.26,0.245
				c-0.887,0-1.639-0.31-2.258-0.928c-0.618-0.618-0.928-1.371-0.928-2.258S166.003,56.42,166.621,55.802z"/>
		</g>
	</g>
</g>
</svg>
