<?xml version="1.0" encoding="utf-8"?>
<!-- Generator: Adobe Illustrator 16.0.0, SVG Export Plug-In . SVG Version: 6.00 Build 0)  -->
<!DOCTYPE svg PUBLIC "-//W3C//DTD SVG 1.1//EN" "http://www.w3.org/Graphics/SVG/1.1/DTD/svg11.dtd">
<svg version="1.1" id="Calque_1" xmlns="http://www.w3.org/2000/svg" xmlns:xlink="http://www.w3.org/1999/xlink" x="0px" y="0px"
	 width="31px" height="31px" viewBox="0 0 31 31" enable-background="new 0 0 31 31" xml:space="preserve">
<title>paper-fab create copy</title>
<desc>Created with Sketch.</desc>
<g id="Page-1_1_">
	<g id="PROFIL_SOUVENIRS" transform="translate(-9.000000, -1114.000000)">
		<g id="_x35__x5F_PART2_x5F_PUBLICATION-1-Copy" transform="translate(0.000000, 1105.000000)">
			<g id="ADD-FLOWER" transform="translate(9.000000, 8.000000)">
				<g id="paper-fab-create-copy">
					<g id="Page-1" transform="translate(0.000000, 1.000000)">
						<g id="Group-3" transform="translate(0.000000, 0.036593)">
							<g id="Clip-2">
							</g>
							<defs>
								<filter id="Adobe_OpacityMaskFilter" filterUnits="userSpaceOnUse" x="0" y="0.055" width="30.735" height="30.607">
									<feColorMatrix  type="matrix" values="1 0 0 0 0  0 1 0 0 0  0 0 1 0 0  0 0 0 1 0"/>
								</filter>
							</defs>
							<mask maskUnits="userSpaceOnUse" x="0" y="0.055" width="30.735" height="30.607" id="mask-2">
								<g filter="url(#Adobe_OpacityMaskFilter)">
									<polygon id="path-1" fill="#FFFFFF" points="0,30.662 30.735,30.662 30.735,0.055 0,0.055 									"/>
								</g>
							</mask>
							<path id="Fill-1" mask="url(#mask-2)" fill="#FFFFFF" d="M20.727,25.229c0.562,0.452,1.213,0.814,1.939,1.051
								c3.248,1.054,6.73-0.754,7.773-4.036c0.961-3.028-0.491-6.25-3.271-7.559c1.232-0.751,2.215-1.935,2.688-3.428
								c1.043-3.282-0.746-6.798-3.995-7.851c-2.537-0.823-5.209,0.102-6.757,2.108c-0.295-2.33-1.876-4.394-4.237-5.159
								c-3.25-1.054-6.73,0.752-7.773,4.036C6.51,6.222,6.812,8.128,7.757,9.636c-3.156-0.843-6.45,0.943-7.459,4.118
								c-1.043,3.283,0.744,6.798,3.996,7.853c1.17,0.379,2.369,0.383,3.476,0.085c-0.127,0.262-0.241,0.533-0.334,0.818
								c-1.043,3.282,0.746,6.797,3.995,7.852c3.25,1.053,6.732-0.754,7.775-4.036c0.133-0.42,0.456-2.1,0.499-2.521"/>
						</g>
						<path id="Fill-4" fill="#FFFFFF" d="M15.681,30.088c2.464-0.769,4.025-3.034,4.083-5.543c1.573,1.728,4.002,2.51,6.294,1.795
							c3.155-0.985,4.843-4.426,3.769-7.687c-0.598-1.821-1.933-3.2-3.543-3.891c2.961-1.103,4.513-4.422,3.475-7.576"/>
					</g>
					<g enable-background="new    ">
						<path fill="#FF5A48" d="M15.012,22.223v-4.711h-4.676v-1.969h4.676v-4.676h1.992v4.676h4.676v1.969h-4.676v4.711H15.012z"/>
					</g>
				</g>
			</g>
		</g>
	</g>
</g>
</svg>
