<?xml version="1.0" encoding="UTF-8" standalone="no"?>
<svg width="31px" height="31px" viewBox="0 0 31 31" version="1.1" xmlns="http://www.w3.org/2000/svg" xmlns:xlink="http://www.w3.org/1999/xlink">
    <!-- Generator: Sketch 41.1 (35376) - http://www.bohemiancoding.com/sketch -->
    <title>Page 1</title>
    <desc>Created with Sketch.</desc>
    <defs>
        <polygon id="path-1" points="0 30.6618184 30.7355139 30.6618184 30.7355139 0.0546619917 0 0.0546619917"></polygon>
    </defs>
    <g id="Page-1" stroke="none" stroke-width="1" fill="none" fill-rule="evenodd">
        <g id="PROFIL_SOUVENIRS" transform="translate(-9.000000, -776.000000)">
            <g id="5_PART2_PUBLICATION-1" transform="translate(0.000000, 767.000000)">
                <g id="ADD-FLOWER">
                    <g id="paper-fab-create-copy">
                        <g id="Page-1" transform="translate(9.000000, 9.000000)">
                            <g id="Group-3" transform="translate(0.000000, 0.036593)">
                                <mask id="mask-2" fill="white">
                                    <use xlink:href="#path-1"></use>
                                </mask>
                                <g id="Clip-2"></g>
                                <path d="M20.7259694,25.2286902 C21.2896303,25.6811345 21.9389518,26.0440573 22.6661629,26.2798612 C25.913945,27.3331312 29.3962093,25.5263653 30.439226,22.2436344 C31.4004676,19.2152323 29.9481235,15.993825 27.1677698,14.6852224 C28.4000891,13.9339166 29.3828361,12.7507902 29.85668,11.2574866 C30.8996967,7.97530321 29.1105838,4.45950597 25.8611752,3.406236 C23.3239782,2.58384223 20.6523266,3.50780328 19.1042922,5.51396225 C18.80945,3.18457661 17.2280729,1.12083547 14.8672571,0.354928799 C11.6173065,-0.69843242 8.13721078,1.10723841 7.09428446,4.39051687 C6.51011199,6.22228675 6.81127933,8.12788226 7.75697911,9.63651673 C4.60055022,8.79286045 1.30704637,10.5795502 0.29746261,13.754691 C-0.745554069,17.0379694 1.04129985,20.5525803 4.29350953,21.6069454 C5.46339058,21.9855641 6.66227694,21.9899443 7.76981012,21.6917216 C7.64285539,21.954081 7.52882203,22.2246533 7.43520986,22.5103739 C6.39228354,25.7925573 8.18130609,29.3071683 11.4307146,30.3616246 C14.6806653,31.4149858 18.1629296,29.6081286 19.2059463,26.3259452 C19.338684,25.9060791 19.6617183,24.2263407 19.7047293,23.8053795" id="Fill-1" fill="#FFFFFF" mask="url(#mask-2)"></path>
                            </g>
                            <path d="M15.6808608,30.08805 C18.1439632,29.3190406 19.705913,27.0537163 19.7632911,24.545105 C21.3368069,26.2722962 23.7658439,27.0542638 26.0578963,26.3392776 C29.2127891,25.3542667 30.9004286,21.9139377 29.8258765,18.6530168 C29.2281502,16.8324714 27.8938153,15.4536021 26.2830715,14.7627074 C29.2437823,13.6600682 30.7959733,10.3408351 29.7575649,7.18677433" id="Fill-4" fill="#FFFFFF"></path>
                        </g>
                    </g>
                </g>
            </g>
        </g>
    </g>
</svg>