<?xml version="1.0" encoding="UTF-8" standalone="no"?>
<svg width="15px" height="17px" viewBox="0 0 15 17" version="1.1" xmlns="http://www.w3.org/2000/svg" xmlns:xlink="http://www.w3.org/1999/xlink">
    <!-- Generator: Sketch 40.3 (33839) - http://www.bohemiancoding.com/sketch -->
    <title>Page 1</title>
    <desc>Created with Sketch.</desc>
    <defs>
        <polygon id="path-1" points="14.9764151 8.48851191 14.9764151 16.9770145 0 16.9770145 0 8.48851191 0 9.30481895e-06 14.9764151 9.30481895e-06"></polygon>
    </defs>
    <g id="Page-1" stroke="none" stroke-width="1" fill="none" fill-rule="evenodd">
        <g id="HOME-Copy" transform="translate(-71.000000, -406.000000)">
            <g id="Page-1" transform="translate(71.000000, 406.000000)">
                <mask id="mask-2" fill="white">
                    <use xlink:href="#path-1"></use>
                </mask>
                <g id="Clip-2"></g>
                <path d="M7.48820755,14.2219377 C6.45267296,14.2219377 5.61616352,13.4011864 5.61616352,12.3852281 C5.61616352,11.369239 6.45267296,10.5484877 7.48820755,10.5484877 C8.52374214,10.5484877 9.36025157,11.369239 9.36025157,12.3852281 C9.36025157,13.4011864 8.52374214,14.2219377 7.48820755,14.2219377 M13.1043711,7.79343866 L13.1043711,5.70120454 C13.1043711,2.90274537 11.0591195,0.400752632 8.22522013,0.0464368421 C4.80172956,-0.383808167 1.87204403,2.23385245 1.87204403,5.50957659 L1.87204403,7.42465281 C1.87204403,7.79343866 0.936037736,7.79343866 0.936037736,7.79343866 C0.42009434,7.79343866 0,8.20560381 0,8.71177804 L0,16.0586474 C0,16.5648525 0.42009434,16.9770176 0.936037736,16.9770176 L14.0403774,16.9770176 C14.5563208,16.9770176 14.9764151,16.5648525 14.9764151,16.0586474 L14.9764151,8.71177804 C14.9764151,8.20560381 14.5563208,7.79343866 14.0403774,7.79343866 L4.12,7.79343866 C3.91361635,7.79343866 3.74408805,7.63071996 3.74408805,7.42465281 L3.74408805,5.67229528 C3.74408805,3.75601579 5.17025157,2.0386147 7.11232704,1.85423721 C9.34553459,1.6409196 11.232327,3.36193049 11.232327,5.50957659 L11.232327,7.79343866" id="Fill-1" fill="#000000" mask="url(#mask-2)"></path>
            </g>
        </g>
    </g>
</svg>