<?xml version="1.0" encoding="UTF-8" standalone="no"?>
<svg width="21px" height="21px" viewBox="0 0 21 21" version="1.1" xmlns="http://www.w3.org/2000/svg" xmlns:xlink="http://www.w3.org/1999/xlink">
    <!-- Generator: Sketch 41.1 (35376) - http://www.bohemiancoding.com/sketch -->
    <title>Shape</title>
    <desc>Created with Sketch.</desc>
    <defs></defs>
    <g id="Page-1" stroke="none" stroke-width="1" fill="none" fill-rule="evenodd">
        <g id="Desktop-HD-Copy-2" transform="translate(-907.000000, -173.000000)" fill="#FF5A48">
            <path d="M922.010978,180.793654 L921.057633,180.793654 L920.726244,181.122642 C921.896913,182.487822 922.608919,184.257633 922.608919,186.196741 C922.608919,190.507204 919.114923,194.001201 914.80446,194.001201 C910.493997,194.001201 907,190.507204 907,186.196741 C907,181.886278 910.493997,178.392281 914.80446,178.392281 C916.743568,178.392281 918.512178,179.103087 919.877358,180.272556 L920.208748,179.943568 L920.208748,178.992624 L926.209777,173 L928,174.790223 L922.010978,180.793654 L922.010978,180.793654 Z M914.80446,180.793654 C911.819554,180.793654 909.401372,183.211835 909.401372,186.196741 C909.401372,189.180446 911.819554,191.599828 914.80446,191.599828 C917.788165,191.599828 920.207547,189.180446 920.207547,186.196741 C920.207547,183.211835 917.788165,180.793654 914.80446,180.793654 L914.80446,180.793654 Z" id="Shape" transform="translate(917.500000, 183.500600) scale(1, -1) translate(-917.500000, -183.500600) "></path>
        </g>
    </g>
</svg>