<?xml version="1.0" encoding="iso-8859-1"?>
<!-- Generator: Adobe Illustrator 19.0.0, SVG Export Plug-In . SVG Version: 6.00 Build 0)  -->
<svg xmlns="http://www.w3.org/2000/svg" xmlns:xlink="http://www.w3.org/1999/xlink" version="1.1" id="Layer_1" x="0px" y="0px" viewBox="0 0 210.414 210.414" style="enable-background:new 0 0 210.414 210.414;" xml:space="preserve" width="512px" height="512px">
<g>
	<g>
		<g>
			<path d="M105.207,0C47.196,0,0,47.196,0,105.207c0,58.011,47.196,105.207,105.207,105.207     c58.011,0,105.207-47.196,105.207-105.207C210.414,47.196,163.218,0,105.207,0z M105.207,202.621     c-53.715,0-97.414-43.699-97.414-97.414c0-53.715,43.699-97.414,97.414-97.414c53.715,0,97.414,43.699,97.414,97.414     C202.621,158.922,158.922,202.621,105.207,202.621z" fill="#FFFFFF"/>
			<path d="M141.95,64.672c-1.939-0.919-4.266-0.101-5.192,1.843l-36.909,77.509l-31.011-23.476     c-1.72-1.305-4.161-0.963-5.459,0.755c-1.299,1.716-0.961,4.159,0.755,5.459l34.823,26.363c0.683,0.518,1.511,0.79,2.352,0.79     c0.308,0,0.618-0.036,0.923-0.11c1.138-0.278,2.091-1.054,2.595-2.112l38.966-81.828     C144.718,67.922,143.895,65.596,141.95,64.672z" fill="#FFFFFF"/>
		</g>
	</g>
</g>
<g>
</g>
<g>
</g>
<g>
</g>
<g>
</g>
<g>
</g>
<g>
</g>
<g>
</g>
<g>
</g>
<g>
</g>
<g>
</g>
<g>
</g>
<g>
</g>
<g>
</g>
<g>
</g>
<g>
</g>
</svg>
